<svg id="Capa_1" enable-background="new 0 0 510 510" height="512" viewBox="0 0 510 510" width="512" xmlns="http://www.w3.org/2000/svg"><g><path d="m112.536 0h-69c-16.57 0-30 13.43-30 30v450c0 16.57 13.43 30 30 30h69c16.57 0 30-13.43 30-30v-450c0-16.57-13.43-30-30-30zm-21.07 416.48c-.82 7.89-7.62 14.17-16.41 13.45-8.51-.89-14.25-8.43-13.44-16.41.69-8.26 8.61-14.96 17.85-13.23 7.36 1.54 12.66 8.09 12 16.19zm.07-57.48c0 8.28-6.72 15-15 15s-15-6.72-15-15v-216c0-8.28 6.72-15 15-15s15 6.72 15 15z"/><path d="m254.106 48h-51.57c-16.57 0-30 13.43-30 30v402c0 16.57 13.43 30 30 30h51.57c16.57 0 30-13.43 30-30v-402c0-16.57-13.43-30-30-30zm-10.64 368.48c-.87 8.35-8.3 14.28-16.41 13.45-8.4-.88-14.27-8.34-13.45-16.41.9-8.6 8.81-14.93 17.86-13.23 7.36 1.54 12.66 8.09 12 16.19zm.07-57.48c0 8.28-6.72 15-15 15s-15-6.72-15-15v-216c0-8.28 6.72-15 15-15s15 6.72 15 15z"/><path d="m495.956 474.56c0-.1 1.486 7.888-66.44-354.37-2.76-14.04-15.1-24.19-29.43-24.19h-70.98c-8.28 0-15 6.72-15 15v239.09c25.87 138.002 25.385 135.433 25.42 135.57 2.938 14.689 15.537 24.34 29.46 24.34h97.48c18.732 0 32.897-16.994 29.49-35.44zm-114.15-120.75-32-168c-1.56-8.14 3.79-16 11.92-17.54 8.14-1.56 16 3.79 17.54 11.92l32 168c1.77 9.23-5.3 17.81-14.75 17.81-7.06 0-13.35-5-14.71-12.19zm42.66 62.67c-.88 8.4-8.35 14.27-16.41 13.45-8.51-.89-14.25-8.43-13.44-16.41.69-8.26 8.61-14.96 17.85-13.23 7.9 1.65 12.75 8.84 12 16.19z"/></g></svg>